<svg xmlns="https://www.w3.org/2000/svg" width="48" height="48" viewBox="0 0 48 48">
  <g id="Group_1133" data-name="Group 1133" transform="translate(-1778 -44.5)">
    <g id="Ellipse_2" data-name="Ellipse 2" transform="translate(1778 44.5)" fill="none" stroke="#c3c3c3" stroke-width="1">
      <circle cx="24" cy="24" r="24" stroke="none"/>
      <circle cx="24" cy="24" r="23.5" fill="none"/>
    </g>
    <path id="Cancel" d="M15.818,6.9H10.841V1.922A1.918,1.918,0,0,0,8.919,0h-.1A1.918,1.918,0,0,0,6.9,1.922V6.9H1.922A1.918,1.918,0,0,0,0,8.821v.108a1.916,1.916,0,0,0,1.922,1.912H6.9v4.977A1.918,1.918,0,0,0,8.821,17.74h.108a1.918,1.918,0,0,0,1.922-1.922V10.841h4.977A1.916,1.916,0,0,0,17.74,8.919v-.1A1.918,1.918,0,0,0,15.818,6.9Z" transform="translate(1802.07 56.026) rotate(45)" fill="#707070"/>
  </g>
</svg>
