<svg width="32" height="32" viewBox="0 0 32 32" fill="none" xmlns="http://www.w3.org/2000/svg">
<path fill-rule="evenodd" clip-rule="evenodd" d="M20.7379 3.19044C19.8569 3.19044 19.1427 2.47624 19.1427 1.59522C19.1427 0.714205 19.8569 0 20.7379 0H30.3092C31.1902 0 31.9044 0.714205 31.9044 1.59522V11.1666C31.9044 12.0476 31.1902 12.7618 30.3092 12.7618C29.4282 12.7618 28.714 12.0476 28.714 11.1666V5.44643L20.2707 13.8898C19.6477 14.5127 18.6376 14.5127 18.0147 13.8898C17.3917 13.2668 17.3917 12.2568 18.0147 11.6338L26.458 3.19044H20.7379ZM11.6338 18.0147C12.2568 17.3917 13.2668 17.3917 13.8898 18.0147C14.5127 18.6376 14.5127 19.6477 13.8898 20.2707L5.44643 28.714H11.1666C12.0476 28.714 12.7618 29.4282 12.7618 30.3092C12.7618 31.1902 12.0476 31.9044 11.1666 31.9044H1.59522C0.714205 31.9044 0 31.1902 0 30.3092V20.7379C0 19.8569 0.714205 19.1427 1.59522 19.1427C2.47624 19.1427 3.19044 19.8569 3.19044 20.7379V26.458L11.6338 18.0147Z" fill="white"/>
</svg>
