<svg width="25" height="18" viewBox="0 0 25 18" fill="none" xmlns="http://www.w3.org/2000/svg">
<path fill-rule="evenodd" clip-rule="evenodd" d="M0 1.25C0 0.559644 0.559644 0 1.25 0H23.75C24.4404 0 25 0.559644 25 1.25C25 1.94036 24.4404 2.5 23.75 2.5H1.25C0.559644 2.5 0 1.94036 0 1.25ZM0 6.25C0 5.55964 0.559644 5 1.25 5H23.75C24.4404 5 25 5.55964 25 6.25C25 6.94036 24.4404 7.5 23.75 7.5H1.25C0.559644 7.5 0 6.94036 0 6.25ZM0 11.25C0 10.5596 0.559644 10 1.25 10H23.75C24.4404 10 25 10.5596 25 11.25C25 11.9404 24.4404 12.5 23.75 12.5H1.25C0.559644 12.5 0 11.9404 0 11.25ZM0 16.25C0 15.5596 0.559644 15 1.25 15H23.75C24.4404 15 25 15.5596 25 16.25C25 16.9404 24.4404 17.5 23.75 17.5H1.25C0.559644 17.5 0 16.9404 0 16.25Z" fill="#1DB954"/>
</svg>
