<svg width="22" height="27" viewBox="0 0 22 27" fill="none" xmlns="http://www.w3.org/2000/svg">
<path d="M15.0846 18.8629C14.3123 18.8658 13.5491 18.6934 12.8508 18.3583C12.1525 18.0232 11.5369 17.534 11.0488 16.9263C10.4679 17.6444 9.71105 18.1948 8.85433 18.5221C7.99761 18.8495 7.07112 18.9424 6.16786 18.7915C5.26459 18.6406 4.41633 18.2511 3.70819 17.6623C3.00005 17.0734 2.45695 16.3059 2.13339 15.4366C1.50021 14.9664 0.979848 14.357 0.611139 13.654C0.24243 12.9511 0.0348983 12.1726 0.00403332 11.3769C-0.0268317 10.5811 0.119767 9.7885 0.432889 9.05828C0.74601 8.32806 1.21757 7.67905 1.81236 7.1597V7.00142C1.81236 5.59394 2.36319 4.2441 3.34367 3.24886C4.32414 2.25361 5.65395 1.69449 7.04056 1.69449H7.19649C7.68235 1.16688 8.26852 0.744708 8.91961 0.453469C9.57069 0.162229 10.2732 0.00796711 10.9846 0C11.7035 0.00078538 12.4144 0.152563 13.0726 0.445785C13.7309 0.739006 14.3222 1.16733 14.8095 1.7038C15.5193 1.66042 16.2304 1.76554 16.8986 2.01264C17.5668 2.25974 18.1778 2.64355 18.6938 3.14027C19.2098 3.63698 19.6198 4.23601 19.8983 4.9002C20.1768 5.5644 20.3179 6.27959 20.3128 7.00142C20.3128 7.08522 20.3128 7.17832 20.3128 7.27142C20.8693 7.78978 21.308 8.42475 21.5987 9.13232C21.8894 9.83989 22.025 10.6032 21.9962 11.3692C21.9674 12.1353 21.7749 12.8858 21.4319 13.5689C21.089 14.2519 20.6039 14.8511 20.0101 15.3249C19.6488 16.3582 18.9816 17.2529 18.0998 17.8863C17.218 18.5196 16.1649 18.8607 15.0846 18.8629ZM11.269 13.8911C11.4972 13.8921 11.7198 13.9628 11.908 14.094C12.0961 14.2252 12.241 14.4108 12.3238 14.6266C12.5418 15.224 12.9422 15.735 13.4665 16.0852C13.9909 16.4353 14.6117 16.6062 15.2384 16.5729C15.8652 16.5396 16.4651 16.304 16.9506 15.9002C17.436 15.4965 17.7817 14.9459 17.9372 14.3287C18.0104 14.0588 18.1764 13.8243 18.405 13.6677C18.8091 13.3979 19.1418 13.0314 19.3737 12.6006C19.6057 12.1697 19.7298 11.6876 19.7353 11.1966C19.7407 10.7057 19.6272 10.2209 19.4049 9.78485C19.1825 9.34881 18.8581 8.97488 18.46 8.69592C18.2845 8.56879 18.1482 8.39364 18.067 8.19088C17.9858 7.98812 17.9631 7.76611 18.0014 7.55074C18.0356 7.36963 18.054 7.18581 18.0565 7.00142C18.0565 6.20138 17.7434 5.4341 17.186 4.86838C16.6287 4.30267 15.8728 3.98485 15.0846 3.98485C14.8999 3.98723 14.7158 4.00592 14.5343 4.04071C14.3221 4.07965 14.1034 4.05656 13.9037 3.97414C13.7039 3.89172 13.5314 3.75336 13.4061 3.57519C13.1349 3.17955 12.7735 2.85636 12.3527 2.63316C11.9318 2.40997 11.464 2.2934 10.9892 2.2934C10.5144 2.2934 10.0466 2.40997 9.62577 2.63316C9.20493 2.85636 8.8435 3.17955 8.57233 3.57519C8.44968 3.74949 8.28202 3.88604 8.08782 3.96982C7.89361 4.0536 7.6804 4.08135 7.47165 4.05002C7.31759 4.01787 7.16108 3.99918 7.00387 3.99416C6.21728 3.99416 5.46277 4.3107 4.90571 4.8744C4.34865 5.43811 4.03448 6.20299 4.03205 7.00142C4.03679 7.16718 4.0552 7.33224 4.08709 7.49487C4.1228 7.71395 4.09499 7.93884 4.00705 8.14216C3.91911 8.34548 3.77483 8.51846 3.59178 8.64005C3.16796 8.91266 2.8198 9.29069 2.58035 9.73826C2.34091 10.1858 2.21811 10.6881 2.22362 11.1974C2.22914 11.7066 2.36278 12.206 2.61186 12.6482C2.86094 13.0903 3.2172 13.4604 3.64682 13.7235C3.88466 13.8765 4.06045 14.1111 4.14212 14.3846C4.32106 15.0148 4.69691 15.569 5.21305 15.9636C5.7292 16.3582 6.35769 16.5719 7.00387 16.5725C7.63027 16.5158 8.23028 16.2899 8.74159 15.9182C9.25289 15.5466 9.65684 15.0427 9.91148 14.4591C10.0491 14.1239 10.1591 14.1704 10.5077 14.0866L10.8654 13.9749C10.993 13.9196 11.1303 13.8911 11.269 13.8911Z" fill="#1DB954"/>
<path d="M14.9652 12.7545C14.8594 12.6465 14.7337 12.5607 14.5952 12.5021C14.4566 12.4436 14.3081 12.4134 14.158 12.4134C14.0079 12.4134 13.8594 12.4436 13.7208 12.5021C13.5823 12.5607 13.4566 12.6465 13.3508 12.7545L12.1676 13.8718V8.09935C12.1676 7.79069 12.0468 7.49467 11.8318 7.27642C11.6168 7.05816 11.3252 6.93555 11.0211 6.93555C10.717 6.93555 10.4254 7.05816 10.2104 7.27642C9.99534 7.49467 9.87454 7.79069 9.87454 8.09935V11.0135L8.61794 9.79384C8.51154 9.67858 8.38313 9.5865 8.24055 9.52323C8.09796 9.45996 7.94418 9.42682 7.78857 9.42582C7.63295 9.42482 7.47877 9.45598 7.33541 9.51741C7.19204 9.57884 7.0625 9.66925 6.95466 9.78314C6.84683 9.89703 6.76297 10.032 6.70818 10.1798C6.65339 10.3277 6.62882 10.4853 6.63598 10.6431C6.64313 10.8009 6.68186 10.9556 6.74979 11.0977C6.81773 11.2398 6.91345 11.3664 7.03114 11.4697L9.51682 13.8904C9.62207 13.9882 9.74307 14.0669 9.87454 14.1232V25.8357C9.87454 26.1443 9.99534 26.4403 10.2104 26.6586C10.4254 26.8768 10.717 26.9995 11.0211 26.9995C11.3252 26.9995 11.6168 26.8768 11.8318 26.6586C12.0468 26.4403 12.1676 26.1443 12.1676 25.8357V17.0094C12.268 16.9616 12.3607 16.8989 12.4428 16.8232L14.9376 14.4025C15.0462 14.2962 15.1331 14.1693 15.1933 14.0289C15.2535 13.8885 15.2857 13.7374 15.2883 13.5843C15.2909 13.4312 15.2636 13.2791 15.2082 13.1367C15.1527 12.9944 15.0701 12.8645 14.9652 12.7545Z" fill="#1DB954"/>
</svg>
