<svg width="22" height="27" viewBox="0 0 22 27" fill="none" xmlns="http://www.w3.org/2000/svg">
<path d="M18.5565 7.00794L18.5564 7.00794C18.5536 7.22027 18.5325 7.43195 18.4933 7.64056M18.5565 7.00794L18.0014 7.55074M18.5565 7.00794V7.00142C18.5565 6.07116 18.1925 5.17752 17.5422 4.51748C16.8917 3.85719 16.0079 3.48485 15.0846 3.48485V3.48481L15.0782 3.48489C14.8648 3.48764 14.6521 3.50916 14.4425 3.54922C14.3255 3.57037 14.2049 3.55756 14.0944 3.51194C13.984 3.46639 13.8874 3.38967 13.8165 3.28961C13.5002 2.82914 13.0786 2.4522 12.5869 2.19144C12.0942 1.93011 11.546 1.7934 10.9892 1.7934C10.4324 1.7934 9.88426 1.93011 9.39151 2.19144C8.89986 2.45218 8.47826 2.82908 8.16198 3.28949C8.09216 3.38792 7.99778 3.46412 7.88976 3.51072C7.78462 3.55608 7.66993 3.57197 7.55731 3.55717C7.3802 3.52117 7.20041 3.50018 7.01981 3.49442L7.01184 3.49416H7.00387C6.08252 3.49416 5.20027 3.865 4.55007 4.52295C3.90012 5.18065 3.53488 6.07152 3.53205 6.9999L3.53203 7.00781L3.53226 7.01572C3.5377 7.20582 3.55855 7.39516 3.59463 7.58182C3.6134 7.70466 3.59717 7.83029 3.54813 7.94367C3.49866 8.05805 3.41826 8.15436 3.31762 8.2219C2.82333 8.54072 2.41809 8.98164 2.13948 9.50239C1.86021 10.0244 1.71723 10.6097 1.72365 11.2028C1.73007 11.7959 1.88569 12.3779 2.17623 12.8936C2.46574 13.4074 2.87985 13.8389 3.38019 14.1466C3.51387 14.2338 3.61447 14.3674 3.66221 14.5249C3.87077 15.2564 4.30783 15.9009 4.90937 16.3608C5.51208 16.8216 6.24698 17.0718 7.00342 17.0725L7.02623 17.0725L7.04895 17.0705C7.76571 17.0056 8.45164 16.7471 9.03557 16.3227C9.61943 15.8983 10.0798 15.3236 10.3698 14.659L10.3699 14.659L10.374 14.6489C10.378 14.6392 10.3817 14.6307 10.385 14.6233C10.3858 14.6232 10.3867 14.623 10.3876 14.6228C10.3984 14.6206 10.412 14.6179 10.4276 14.6148C10.4779 14.6049 10.5501 14.5907 10.6246 14.5728L10.6408 14.5689L10.6567 14.5639L11.0145 14.4522L11.0399 14.4442L11.0643 14.4337C11.1289 14.4057 11.1981 14.3913 11.2678 14.3911C11.3936 14.3919 11.517 14.4309 11.622 14.5041C11.7265 14.577 11.8083 14.6806 11.8558 14.8026C12.1102 15.4969 12.5767 16.0922 13.1889 16.501C13.8025 16.9107 14.5299 17.1112 15.2649 17.0722C15.9999 17.0332 16.7025 16.7568 17.2702 16.2847C17.8365 15.8138 18.239 15.173 18.4208 14.456M18.5565 7.00794L18.6856 14.0815M18.4933 7.64056C18.4931 7.64156 18.4929 7.64255 18.4927 7.64355L18.0014 7.55074M18.4933 7.64056C18.4934 7.63985 18.4935 7.63913 18.4937 7.63841L18.0014 7.55074M18.4933 7.64056C18.4718 7.76341 18.485 7.88983 18.5312 8.005C18.5771 8.11977 18.6536 8.21798 18.7507 8.28909M18.0014 7.55074C17.9631 7.76611 17.9858 7.98812 18.067 8.19088C18.1482 8.39364 18.2845 8.56879 18.46 8.69592M18.7507 8.28909C18.7495 8.28821 18.7482 8.28734 18.747 8.28646L18.46 8.69592M18.7507 8.28909C19.2145 8.61502 19.5918 9.05075 19.8503 9.55771C20.1095 10.066 20.2415 10.6307 20.2352 11.2022C20.2289 11.7737 20.0844 12.3353 19.814 12.8376C19.5441 13.3389 19.1569 13.7662 18.6856 14.0815M18.7507 8.28909C18.7516 8.28972 18.7525 8.29034 18.7533 8.29097L18.46 8.69592M18.46 8.69592L18.6856 14.0815M18.6856 14.0815C18.6862 14.0811 18.6869 14.0806 18.6876 14.0802L18.405 13.6677L18.6826 14.0835C18.6836 14.0828 18.6846 14.0822 18.6856 14.0815ZM18.6856 14.0815C18.5579 14.1697 18.4635 14.3019 18.4208 14.456M18.4208 14.456C18.4212 14.4543 18.4216 14.4526 18.4221 14.4508L17.9372 14.3287L18.4198 14.4596C18.4201 14.4584 18.4204 14.4572 18.4208 14.456ZM15.0837 18.3629L15.0828 18.3629C14.3861 18.3655 13.6975 18.21 13.0671 17.9075C12.4367 17.605 11.8802 17.163 11.4387 16.6132L11.0503 16.1296L10.6601 16.6118C10.1342 17.2619 9.44966 17.7594 8.67585 18.0551C7.90209 18.3508 7.06565 18.4346 6.25026 18.2983C5.43484 18.1621 4.66834 17.8104 4.02787 17.2778C3.38735 16.7452 2.89531 16.0503 2.60198 15.2622L2.55035 15.1235L2.43152 15.0352C1.85906 14.6101 1.38797 14.0587 1.05393 13.4218C0.719873 12.7849 0.531651 12.0792 0.503658 11.3575C0.475665 10.6357 0.608646 9.91711 0.892423 9.25533C1.17619 8.59356 1.60326 8.00606 2.14122 7.53633L2.31236 7.3869V7.1597V7.00142C2.31236 5.72415 2.8123 4.50068 3.69985 3.59976C4.58715 2.69909 5.78899 2.19449 7.04056 2.19449H7.19649H7.41576L7.56429 2.03319C8.00443 1.55524 8.53501 1.17325 9.12377 0.909887C9.71157 0.646957 10.3454 0.507612 10.9872 0.500004C11.6349 0.501141 12.2756 0.638093 12.8692 0.902518C13.4637 1.16737 13.9984 1.5545 14.4393 2.03997L14.6006 2.2175L14.84 2.20287C15.4804 2.16374 16.122 2.25855 16.7252 2.4816C17.3283 2.70466 17.8804 3.05131 18.347 3.50049C18.8137 3.94968 19.1849 4.49183 19.4372 5.09355C19.6895 5.69528 19.8174 6.3435 19.8128 6.99792V7.00142V7.00191V7.0024V7.0029V7.00339V7.00388V7.00437V7.00486V7.00536V7.00585V7.00634V7.00684V7.00733V7.00782V7.00832V7.00881V7.0093V7.0098V7.01029V7.01079V7.01128V7.01178V7.01227V7.01277V7.01327V7.01376V7.01426V7.01475V7.01525V7.01575V7.01625V7.01674V7.01724V7.01774V7.01824V7.01873V7.01923V7.01973V7.02023V7.02073V7.02123V7.02173V7.02223V7.02273V7.02323V7.02373V7.02423V7.02473V7.02523V7.02573V7.02623V7.02673V7.02723V7.02773V7.02823V7.02874V7.02924V7.02974V7.03024V7.03075V7.03125V7.03175V7.03226V7.03276V7.03326V7.03377V7.03427V7.03477V7.03528V7.03578V7.03629V7.03679V7.0373V7.0378V7.03831V7.03882V7.03932V7.03983V7.04033V7.04084V7.04135V7.04185V7.04236V7.04287V7.04338V7.04388V7.04439V7.0449V7.04541V7.04591V7.04642V7.04693V7.04744V7.04795V7.04846V7.04897V7.04948V7.04999V7.0505V7.05101V7.05152V7.05203V7.05254V7.05305V7.05356V7.05407V7.05458V7.05509V7.0556V7.05611V7.05663V7.05714V7.05765V7.05816V7.05868V7.05919V7.0597V7.06021V7.06073V7.06124V7.06175V7.06227V7.06278V7.0633V7.06381V7.06432V7.06484V7.06535V7.06587V7.06638V7.0669V7.06741V7.06793V7.06844V7.06896V7.06948V7.06999V7.07051V7.07102V7.07154V7.07206V7.07257V7.07309V7.07361V7.07413V7.07464V7.07516V7.07568V7.0762V7.07671V7.07723V7.07775V7.07827V7.07879V7.07931V7.07982V7.08034V7.08086V7.08138V7.0819V7.08242V7.08294V7.08346V7.08398V7.0845V7.08502V7.08554V7.08606V7.08658V7.08711V7.08763V7.08815V7.08867V7.08919V7.08971V7.09023V7.09076V7.09128V7.0918V7.09232V7.09285V7.09337V7.09389V7.09441V7.09494V7.09546V7.09598V7.09651V7.09703V7.09755V7.09808V7.0986V7.09913V7.09965V7.10018V7.1007V7.10122V7.10175V7.10227V7.1028V7.10332V7.10385V7.10438V7.1049V7.10543V7.10595V7.10648V7.107V7.10753V7.10806V7.10858V7.10911V7.10964V7.11016V7.11069V7.11122V7.11175V7.11227V7.1128V7.11333V7.11386V7.11438V7.11491V7.11544V7.11597V7.1165V7.11702V7.11755V7.11808V7.11861V7.11914V7.11967V7.1202V7.12073V7.12126V7.12179V7.12232V7.12285V7.12337V7.1239V7.12443V7.12497V7.1255V7.12603V7.12656V7.12709V7.12762V7.12815V7.12868V7.12921V7.12974V7.13027V7.1308V7.13134V7.13187V7.1324V7.13293V7.13346V7.134V7.13453V7.13506V7.13559V7.13612V7.13666V7.13719V7.13772V7.13826V7.13879V7.13932V7.13985V7.14039V7.14092V7.14146V7.14199V7.14252V7.14306V7.14359V7.14412V7.14466V7.14519V7.14573V7.14626V7.1468V7.14733V7.14786V7.1484V7.14893V7.14947V7.15V7.15054V7.15107V7.15161V7.15215V7.15268V7.15322V7.15375V7.15429V7.15482V7.15536V7.1559V7.15643V7.15697V7.1575V7.15804V7.15858V7.15911V7.15965V7.16019V7.16072V7.16126V7.1618V7.16233V7.16287V7.16341V7.16395V7.16448V7.16502V7.16556V7.1661V7.16663V7.16717V7.16771V7.16825V7.16879V7.16932V7.16986V7.1704V7.17094V7.17148V7.17202V7.17255V7.17309V7.17363V7.17417V7.17471V7.17525V7.17579V7.17633V7.17687V7.17741V7.17795V7.17848V7.17902V7.17956V7.1801V7.18064V7.18118V7.18172V7.18226V7.1828V7.18334V7.18388V7.18442V7.18496V7.1855V7.18604V7.18658V7.18712V7.18766V7.18821V7.18875V7.18929V7.18983V7.19037V7.19091V7.19145V7.19199V7.19253V7.19307V7.19362V7.19416V7.1947V7.19524V7.19578V7.19632V7.19686V7.19741V7.19795V7.19849V7.19903V7.19957V7.20012V7.20066V7.2012V7.20174V7.20228V7.20283V7.20337V7.20391V7.20445V7.20499V7.20554V7.20608V7.20662V7.20716V7.20771V7.20825V7.20879V7.20934V7.20988V7.21042V7.21096V7.21151V7.21205V7.21259V7.21314V7.21368V7.21422V7.21477V7.21531V7.21585V7.2164V7.21694V7.21748V7.21803V7.21857V7.21911V7.21966V7.2202V7.22075V7.22129V7.22183V7.22238V7.22292V7.22346V7.22401V7.22455V7.2251V7.22564V7.22618V7.22673V7.22727V7.22782V7.22836V7.22891V7.22945V7.22999V7.23054V7.23108V7.23163V7.23217V7.23272V7.23326V7.2338V7.23435V7.23489V7.23544V7.23598V7.23653V7.23707V7.23762V7.23816V7.23871V7.23925V7.2398V7.24034V7.24089V7.24143V7.24198V7.24252V7.24307V7.24361V7.24416V7.2447V7.24525V7.24579V7.24634V7.24688V7.24743V7.24797V7.24852V7.24906V7.24961V7.25015V7.2507V7.25124V7.25179V7.25233V7.25288V7.25342V7.25397V7.25451V7.25506V7.25561V7.25615V7.2567V7.25724V7.25779V7.25833V7.25888V7.25942V7.25997V7.26051V7.26106V7.2616V7.26215V7.2627V7.26324V7.26379V7.26433V7.26488V7.26542V7.26597V7.26651V7.26706V7.26761V7.26815V7.2687V7.26924V7.26979V7.27033V7.27088V7.27142V7.48898L19.972 7.63727C20.4754 8.10618 20.8728 8.68104 21.1362 9.32231C21.3996 9.9636 21.5227 10.6557 21.4966 11.3504C21.4705 12.0452 21.2958 12.7256 20.9851 13.3445C20.6744 13.9634 20.2351 14.5057 19.6983 14.9341L19.5857 15.0239L19.5382 15.1599C19.2104 16.0971 18.6057 16.9072 17.8081 17.4802C17.0106 18.053 16.059 18.361 15.0837 18.3629Z" fill="white" stroke="white"/>
<path d="M14.4005 12.9627C14.4767 12.9949 14.5465 13.0421 14.6056 13.102C14.6642 13.164 14.7108 13.2373 14.7423 13.3182C14.7741 13.4 14.7898 13.4876 14.7884 13.576C14.7869 13.6643 14.7683 13.7513 14.7337 13.8319C14.6993 13.9122 14.6499 13.9844 14.5886 14.0445C14.5884 14.0447 14.5882 14.0449 14.5879 14.0451L12.0998 16.4593C12.0555 16.4994 12.006 16.5326 11.9527 16.5579L11.6676 16.6936V17.0094V25.8357C11.6676 26.0141 11.5977 26.1838 11.4756 26.3077C11.3538 26.4314 11.1901 26.4995 11.0211 26.4995C10.852 26.4995 10.6884 26.4314 10.5665 26.3077C10.4444 26.1838 10.3745 26.0141 10.3745 25.8357V14.1232V13.7933L10.0712 13.6635C9.99444 13.6306 9.92331 13.5848 9.86091 13.5276L7.37998 11.1115L7.37075 11.1025L7.36107 11.094C7.29448 11.0355 7.23985 10.9635 7.2009 10.882C7.16194 10.8005 7.13959 10.7115 7.13546 10.6205C7.13134 10.5294 7.14553 10.4386 7.17702 10.3536C7.2085 10.2686 7.25652 10.1916 7.31773 10.1269C7.37893 10.0623 7.45203 10.0114 7.53234 9.977C7.61262 9.94259 7.69868 9.92525 7.78535 9.92581C7.87202 9.92636 7.95787 9.94481 8.03775 9.98026C8.11764 10.0157 8.19013 10.0675 8.25055 10.133L8.25985 10.1431L8.2697 10.1526L9.5263 11.3723L10.3745 12.1956V11.0135V8.09935C10.3745 7.9209 10.4444 7.75125 10.5665 7.62732C10.6884 7.50364 10.852 7.43555 11.0211 7.43555C11.1901 7.43555 11.3538 7.50364 11.4756 7.62732C11.5977 7.75125 11.6676 7.9209 11.6676 8.09935V13.8718V15.0316L12.5109 14.2353L13.6941 13.1181L13.7013 13.1113L13.7083 13.1041C13.7679 13.0432 13.8384 12.9953 13.9155 12.9627C13.9926 12.9301 14.075 12.9134 14.158 12.9134C14.241 12.9134 14.3234 12.9301 14.4005 12.9627Z" fill="white" stroke="white"/>
</svg>
