<svg width="26" height="27" viewBox="0 0 26 27" fill="none" xmlns="http://www.w3.org/2000/svg">
<path d="M20.5102 13.296C20.5093 14.3171 20.3068 15.328 19.9145 16.2707C19.5221 17.2134 18.9475 18.0694 18.2236 18.7896C17.4997 19.5098 16.6408 20.08 15.6961 20.4675C14.7514 20.8551 13.7395 21.0524 12.7184 21.0481C8.45217 21.0369 5.00711 17.548 5.0176 13.2477C5.02778 9.01038 8.51798 5.54211 12.7671 5.54688C17.0314 5.55165 20.5185 9.04186 20.5102 13.296ZM12.7801 19.4139C16.1343 19.4174 18.9085 16.6737 18.9126 13.3482C18.9171 9.92633 16.2055 7.16799 12.8332 7.16418C9.4244 7.16036 6.67146 9.87292 6.66542 13.2407C6.66129 16.6578 9.38624 19.4101 12.7801 19.4139Z" fill="white"/>
<path d="M6.66678 18.9512L8.56862 20.4855L7.58877 21.6679C6.24881 23.2844 4.90864 24.9011 3.56826 26.5178C3.23634 26.9181 2.80778 27.0739 2.30354 26.9655C1.82665 26.8625 1.50872 26.5604 1.39077 26.0813C1.29031 25.6779 1.39713 25.3164 1.66165 24.9975C2.39945 24.1073 3.13651 23.2171 3.87283 22.3269C4.77553 21.2358 5.67792 20.1442 6.57998 19.0523C6.61464 19.01 6.65056 18.9699 6.66678 18.9512Z" fill="white"/>
<path d="M11.4402 21.7891L13.502 21.8787C13.5039 21.9194 13.5096 21.984 13.5096 22.0485C13.5096 23.3495 13.5096 24.6504 13.5096 25.9514C13.5096 26.5468 13.0537 27.0037 12.4694 27.0005C11.893 26.9967 11.4415 26.5411 11.4409 25.9542C11.439 24.617 11.439 23.2798 11.4409 21.9426L11.4402 21.7891Z" fill="white"/>
<path d="M11.3762 12.601C11.3762 12.483 11.3762 12.4185 11.3762 12.3536C11.3724 11.5302 11.3666 10.7064 11.365 9.883C11.3646 9.7448 11.3916 9.60789 11.4446 9.48024C11.4975 9.35259 11.5754 9.23676 11.6736 9.1395C11.7717 9.04224 11.8883 8.96548 12.0164 8.91372C12.1446 8.86195 12.2817 8.8362 12.4199 8.83798C13.004 8.8437 13.4576 9.30883 13.457 9.90017C13.4555 11.5776 13.454 13.255 13.4526 14.9326V15.1743C13.5584 15.0748 13.6328 15.0083 13.7034 14.9381C13.9527 14.6904 14.1975 14.4386 14.4496 14.1941C14.8756 13.7808 15.528 13.7808 15.9346 14.1916C16.128 14.3887 16.2355 14.6543 16.2339 14.9304C16.2323 15.2066 16.1217 15.4709 15.926 15.6658C15.3277 16.2571 14.7179 16.8361 14.1049 17.4144C13.9571 17.5489 13.7985 17.671 13.6306 17.7794C13.589 17.8026 13.5552 17.8377 13.5335 17.8801C13.5118 17.9226 13.5031 17.9705 13.5085 18.0178C13.5183 18.181 13.5169 18.3447 13.5044 18.5077C13.4999 18.5577 13.4335 18.6375 13.3883 18.6425C12.7207 18.7169 12.0584 18.6782 11.4108 18.4915C11.3657 18.4785 11.3183 18.3761 11.3189 18.3157C11.3259 17.6319 11.3422 16.9486 11.3555 16.2638C11.3603 16.0276 11.3679 15.7914 11.3644 15.5555C11.3639 15.4932 11.3403 15.4332 11.2983 15.3873C11.1018 15.2096 10.885 15.0522 10.6942 14.8684C10.0537 14.2504 9.41784 13.6277 8.78665 13.0003C8.35204 12.5701 8.33424 11.9371 8.73674 11.5197C9.14686 11.0946 9.79098 11.0879 10.2335 11.5076C10.603 11.8583 10.968 12.2096 11.3762 12.601Z" fill="white"/>
<path d="M23.881 8.29692C23.8733 8.28535 23.8679 8.2724 23.8651 8.25877C23.8015 6.59378 23.2076 5.13831 22.0946 3.93209C20.8585 2.59235 19.3207 1.87765 17.5237 1.80738C17.3622 1.80102 17.2694 1.76542 17.1588 1.66622C15.933 0.575827 14.3447 -0.0181567 12.7042 0.000423067C11.0638 0.0190028 9.48929 0.64881 8.28858 1.76669C8.2673 1.78333 8.24214 1.79427 8.21546 1.79848C7.138 1.86048 6.1591 2.14407 5.3061 2.64162C3.23767 3.84784 2.10298 5.67783 1.93353 8.08136C1.92304 8.23047 1.87694 8.32362 1.74468 8.46478C0.606499 9.67895 -0.0131416 11.2775 0.000211394 12.9657C0.0135643 14.6539 0.659912 16.2451 1.82194 17.4373C2.20345 17.8284 2.59736 18.2544 2.86601 18.7838C3.0094 19.0664 3.20492 19.3172 3.39377 19.5598C3.47611 19.6654 3.56132 19.7747 3.64112 19.8851L3.671 19.9267L4.92872 18.3965C4.63909 18.0509 4.40255 17.6653 4.18732 17.1862C4.0843 16.9602 3.9311 16.7606 3.73936 16.6028C2.21331 15.3727 1.64294 13.8257 1.99457 11.873C2.17038 10.8953 2.6565 10.0427 3.43923 9.33877C3.56914 9.2268 3.67205 9.08691 3.74026 8.92957C3.80847 8.77222 3.84023 8.60148 3.83315 8.43013C3.83012 8.2428 3.83915 8.05547 3.86017 7.86931C4.10942 5.48262 6.09584 3.68697 8.48315 3.68697H8.50096C8.88883 3.68697 9.1969 3.5563 9.46968 3.27557C10.3456 2.37457 11.527 1.87955 12.7987 1.87955H12.8248C14.1073 1.88591 15.2951 2.39428 16.1691 3.31023C16.4002 3.55249 16.6873 3.67489 17.0472 3.68379L17.1594 3.68633C17.5091 3.69428 17.8728 3.70255 18.2025 3.77313C20.3008 4.22077 21.8549 6.094 21.8981 8.22856C21.9099 8.81737 22.0873 9.25165 22.4907 9.68054C23.3574 10.6025 23.805 11.8663 23.7189 13.1507C23.6773 13.7881 23.5053 14.4101 23.2134 14.9782C22.9215 15.5463 22.516 16.0484 22.0221 16.4533C21.8276 16.6095 21.6795 16.8157 21.5935 17.0498C21.2201 18.0446 20.5167 18.8813 19.6008 19.4199C18.9903 20.582 16.5518 21.7433 16.5518 21.7433L16.4882 21.7847L16.7785 21.8715C16.797 21.8769 16.8103 21.8823 16.8237 21.8864C16.876 21.9079 16.9321 21.9187 16.9887 21.9182C17.1266 21.9144 17.2643 21.9163 17.4102 21.9182C17.4951 21.9182 17.5806 21.9204 17.6665 21.9204C17.9221 21.9253 18.1777 21.9055 18.4295 21.8613C20.7373 21.413 22.3941 20.0809 23.3536 17.9044C23.3772 17.8547 23.4104 17.81 23.4512 17.7731C24.7957 16.5557 25.539 15.0494 25.6601 13.296C25.787 11.4047 25.1896 9.72219 23.881 8.29692Z" fill="white"/>
</svg>
