<svg width="20" height="25" viewBox="0 0 20 25" fill="none" xmlns="http://www.w3.org/2000/svg">
<path fill-rule="evenodd" clip-rule="evenodd" d="M0.976311 0.9985C1.60143 0.359171 2.44928 0 3.33333 0H12.2222C12.5169 0 12.7995 0.119724 13.0079 0.332833L19.6746 7.15102C19.8829 7.36412 20 7.65316 20 7.95455V21.5909C20 22.4951 19.6488 23.3622 19.0237 24.0015C18.3986 24.6408 17.5507 25 16.6667 25H3.33333C2.44928 25 1.60143 24.6408 0.976311 24.0015C0.351189 23.3622 0 22.4951 0 21.5909V3.40909C0 2.50494 0.351189 1.63783 0.976311 0.9985ZM3.33333 2.27273C3.03865 2.27273 2.75603 2.39245 2.54766 2.60556C2.33929 2.81867 2.22222 3.10771 2.22222 3.40909V21.5909C2.22222 21.8923 2.33929 22.1813 2.54766 22.3944C2.75603 22.6075 3.03865 22.7273 3.33333 22.7273H16.6667C16.9614 22.7273 17.244 22.6075 17.4523 22.3944C17.6607 22.1813 17.7778 21.8923 17.7778 21.5909V9.09091H12.2222C11.6086 9.09091 11.1111 8.58214 11.1111 7.95455V2.27273H3.33333ZM13.3333 3.87979L16.2064 6.81818H13.3333V3.87979ZM4.44444 9.09091C4.44444 8.46331 4.94191 7.95455 5.55556 7.95455H7.77778C8.39143 7.95455 8.88889 8.46331 8.88889 9.09091C8.88889 9.7185 8.39143 10.2273 7.77778 10.2273H5.55556C4.94191 10.2273 4.44444 9.7185 4.44444 9.09091ZM4.44444 13.6364C4.44444 13.0088 4.94191 12.5 5.55556 12.5H14.4444C15.0581 12.5 15.5556 13.0088 15.5556 13.6364C15.5556 14.264 15.0581 14.7727 14.4444 14.7727H5.55556C4.94191 14.7727 4.44444 14.264 4.44444 13.6364ZM4.44444 18.1818C4.44444 17.5542 4.94191 17.0455 5.55556 17.0455H14.4444C15.0581 17.0455 15.5556 17.5542 15.5556 18.1818C15.5556 18.8094 15.0581 19.3182 14.4444 19.3182H5.55556C4.94191 19.3182 4.44444 18.8094 4.44444 18.1818Z" fill="white"/>
</svg>
