<svg width="30" height="26" viewBox="0 0 30 26" fill="none" xmlns="http://www.w3.org/2000/svg">
<path fill-rule="evenodd" clip-rule="evenodd" d="M1.19111 2.28003C1.19111 2.42303 1.21927 2.56463 1.274 2.69674C1.32872 2.82886 1.40893 2.9489 1.51004 3.05002L9.43818 10.9781L11.5556 11.5556L10.9782 9.43818L3.05002 1.51004C2.9489 1.40893 2.82886 1.32872 2.69674 1.27399C2.56463 1.21927 2.42303 1.19111 2.28003 1.19111C2.13703 1.19111 1.99543 1.21927 1.86332 1.27399C1.7312 1.32872 1.61116 1.40893 1.51004 1.51004C1.40893 1.61116 1.32872 1.7312 1.274 1.86332C1.21927 1.99543 1.19111 2.13703 1.19111 2.28003ZM0.173557 3.15256C0.0589742 2.87593 -4.55497e-07 2.57945 -4.68585e-07 2.28003C-4.81673e-07 1.98061 0.0589742 1.68413 0.173556 1.4075C0.288139 1.13087 0.456085 0.879525 0.667805 0.667805C0.879525 0.456084 1.13087 0.288137 1.4075 0.173555C1.68413 0.0589723 1.98061 -1.04025e-06 2.28003 -1.05334e-06C2.57945 -1.06643e-06 2.87593 0.0589722 3.15256 0.173555C3.42919 0.288137 3.68054 0.456084 3.89226 0.667805L11.9322 8.70777C12.0055 8.78106 12.0584 8.8722 12.0857 8.97219L12.979 12.2477C13.0352 12.4539 12.9767 12.6744 12.8256 12.8256C12.6744 12.9767 12.4539 13.0352 12.2477 12.979L8.97219 12.0857C8.8722 12.0584 8.78106 12.0055 8.70777 11.9322L0.667805 3.89226C0.456085 3.68054 0.288139 3.42919 0.173557 3.15256Z" fill="#1DB954"/>
<path d="M13 17.875L21.7273 7L21 14.125H29L20.2727 25L21 17.875H13Z" stroke="#1DB954" stroke-width="1.5" stroke-linejoin="round"/>
</svg>
