<svg width="24" height="24" viewBox="0 0 24 24" fill="none" xmlns="http://www.w3.org/2000/svg">
<path fill-rule="evenodd" clip-rule="evenodd" d="M9 4C9.55229 4 10 3.55228 10 3C10 2.44772 9.55229 2 9 2H3C2.44772 2 2 2.44772 2 3V9C2 9.55228 2.44772 10 3 10C3.55228 10 4 9.55228 4 9V5.41421L13.2929 14.7071C13.6834 15.0976 14.3166 15.0976 14.7071 14.7071C15.0976 14.3166 15.0976 13.6834 14.7071 13.2929L5.41422 4H9ZM19 7C19.2652 7 19.5196 7.10536 19.7071 7.29289C19.8946 7.48043 20 7.73478 20 8V19C20 19.2652 19.8946 19.5196 19.7071 19.7071C19.5196 19.8946 19.2652 20 19 20H8C7.73478 20 7.48043 19.8946 7.29289 19.7071C7.10536 19.5196 7 19.2652 7 19V13C7 12.4477 6.55229 12 6 12C5.44772 12 5 12.4477 5 13V19C5 19.7957 5.31607 20.5587 5.87868 21.1213C6.44129 21.6839 7.20435 22 8 22H19C19.7957 22 20.5587 21.6839 21.1213 21.1213C21.6839 20.5587 22 19.7957 22 19V8C22 7.20435 21.6839 6.44129 21.1213 5.87868C20.5587 5.31607 19.7956 5 19 5H13C12.4477 5 12 5.44772 12 6C12 6.55228 12.4477 7 13 7H19Z" fill="#1DB954"/>
</svg>
