<svg width="22" height="20" viewBox="0 0 22 20" fill="none" xmlns="http://www.w3.org/2000/svg">
<path fill-rule="evenodd" clip-rule="evenodd" d="M6.87854 0.118581C7.14465 -0.0307156 7.46915 -0.0395587 7.74328 0.0950159L14.6378 3.47961L20.6285 0.118581C20.9123 -0.0405915 21.2608 -0.0394485 21.5434 0.121581C21.8261 0.282611 22 0.579177 22 0.9V15.3C22 15.623 21.8237 15.9212 21.5381 16.0814L15.1215 19.6814C14.8554 19.8307 14.5309 19.8396 14.2567 19.705L7.36218 16.3204L1.37146 19.6814C1.08775 19.8406 0.739189 19.8394 0.456567 19.6784C0.173945 19.5174 0 19.2208 0 18.9V4.5C0 4.17703 0.176262 3.87882 0.461873 3.71858L6.87854 0.118581ZM8.25 14.7438L13.75 17.4438V5.05623L8.25 2.35623V14.7438ZM6.41667 2.45086V14.7777L1.83333 17.3491V5.02229L6.41667 2.45086ZM15.5833 5.02229V17.3491L20.1667 14.7777V2.45086L15.5833 5.02229Z" fill="white"/>
</svg>
