<svg width="18" height="20" viewBox="0 0 18 20" fill="none" xmlns="http://www.w3.org/2000/svg">
<path fill-rule="evenodd" clip-rule="evenodd" d="M8.99984 1.66667C7.23173 1.66667 5.53603 2.36905 4.28579 3.61929C3.03555 4.86953 2.33317 6.56522 2.33317 8.33333C2.33317 10.915 4.01295 13.4202 5.8548 15.3644C6.75868 16.3185 7.66539 17.0996 8.34707 17.6424C8.60077 17.8444 8.82236 18.0127 8.99984 18.1438C9.17732 18.0127 9.39891 17.8444 9.65261 17.6424C10.3343 17.0996 11.241 16.3185 12.1449 15.3644C13.9867 13.4202 15.6665 10.915 15.6665 8.33333C15.6665 6.56522 14.9641 4.86953 13.7139 3.61929C12.4636 2.36905 10.7679 1.66667 8.99984 1.66667ZM8.99984 19.1667C8.53759 19.86 8.53738 19.8599 8.53714 19.8597L8.53475 19.8581L8.5292 19.8544L8.5101 19.8415C8.49388 19.8305 8.47073 19.8147 8.44114 19.7942C8.38195 19.7532 8.29689 19.6934 8.18966 19.616C7.97529 19.4612 7.6718 19.2352 7.30886 18.9462C6.58428 18.3692 5.61599 17.5357 4.64488 16.5106C2.73672 14.4965 0.666504 11.585 0.666504 8.33333C0.666504 6.1232 1.54448 4.00358 3.10728 2.44078C4.67008 0.877973 6.7897 0 8.99984 0C11.21 0 13.3296 0.877973 14.8924 2.44078C16.4552 4.00358 17.3332 6.1232 17.3332 8.33333C17.3332 11.585 15.263 14.4965 13.3548 16.5106C12.3837 17.5357 11.4154 18.3692 10.6908 18.9462C10.3279 19.2352 10.0244 19.4612 9.81001 19.616C9.70278 19.6934 9.61773 19.7532 9.55854 19.7942C9.52894 19.8147 9.5058 19.8305 9.48957 19.8415L9.47047 19.8544L9.46492 19.8581L9.46316 19.8593C9.46292 19.8595 9.46209 19.86 8.99984 19.1667ZM8.99984 19.1667L9.46209 19.86C9.18217 20.0466 8.81705 20.0464 8.53714 19.8597L8.99984 19.1667ZM8.99984 6.66667C8.07936 6.66667 7.33317 7.41286 7.33317 8.33333C7.33317 9.25381 8.07936 10 8.99984 10C9.92031 10 10.6665 9.25381 10.6665 8.33333C10.6665 7.41286 9.92031 6.66667 8.99984 6.66667ZM5.6665 8.33333C5.6665 6.49238 7.15889 5 8.99984 5C10.8408 5 12.3332 6.49238 12.3332 8.33333C12.3332 10.1743 10.8408 11.6667 8.99984 11.6667C7.15889 11.6667 5.6665 10.1743 5.6665 8.33333Z" fill="#1DB954"/>
</svg>
