<svg width="18" height="18" viewBox="0 0 18 18" fill="none" xmlns="http://www.w3.org/2000/svg">
<path fill-rule="evenodd" clip-rule="evenodd" d="M14.843 1.64922C14.645 1.64922 14.449 1.68822 14.266 1.76399C14.0831 1.83977 13.9169 1.95082 13.7769 2.09083L2.79949 13.0682L1.99988 16.0001L4.93176 15.2005L15.9092 4.2231C16.0492 4.08309 16.1602 3.91688 16.236 3.73395C16.3118 3.55103 16.3508 3.35497 16.3508 3.15697C16.3508 2.95896 16.3118 2.7629 16.236 2.57998C16.1602 2.39705 16.0492 2.23084 15.9092 2.09083C15.7692 1.95082 15.603 1.83977 15.42 1.76399C15.2371 1.68822 15.041 1.64922 14.843 1.64922ZM13.6349 0.24031C14.0179 0.0816572 14.4285 0 14.843 0C15.2576 0 15.6681 0.0816572 16.0512 0.24031C16.4342 0.398962 16.7822 0.631502 17.0753 0.924654C17.3685 1.2178 17.601 1.56583 17.7597 1.94885C17.9183 2.33187 18 2.74239 18 3.15697C18 3.57154 17.9183 3.98206 17.7597 4.36509C17.601 4.74811 17.3685 5.09613 17.0753 5.38928L5.94309 16.5215C5.84161 16.623 5.71542 16.6962 5.57697 16.734L1.0416 17.9709C0.75611 18.0488 0.450788 17.9677 0.241542 17.7585C0.032297 17.5492 -0.0487858 17.2439 0.0290753 16.9584L1.26599 12.423C1.30375 12.2846 1.37699 12.1584 1.47846 12.0569L12.6107 0.924654C12.9039 0.631502 13.2519 0.398962 13.6349 0.24031Z" fill="#1DB954"/>
</svg>
