<svg width="22" height="22" viewBox="0 0 22 22" fill="none" xmlns="http://www.w3.org/2000/svg">
<path fill-rule="evenodd" clip-rule="evenodd" d="M9.9 2.2C5.64741 2.2 2.2 5.64741 2.2 9.9C2.2 14.1526 5.64741 17.6 9.9 17.6C11.9745 17.6 13.8575 16.7796 15.242 15.4455C15.271 15.4079 15.3027 15.3717 15.3372 15.3372C15.3717 15.3027 15.4079 15.271 15.4455 15.242C16.7796 13.8575 17.6 11.9745 17.6 9.9C17.6 5.64741 14.1526 2.2 9.9 2.2ZM17.6351 16.0795C18.9899 14.3858 19.8 12.2375 19.8 9.9C19.8 4.43238 15.3676 0 9.9 0C4.43238 0 0 4.43238 0 9.9C0 15.3676 4.43238 19.8 9.9 19.8C12.2375 19.8 14.3858 18.9899 16.0795 17.6351L20.1222 21.6778C20.5518 22.1074 21.2482 22.1074 21.6778 21.6778C22.1074 21.2482 22.1074 20.5518 21.6778 20.1222L17.6351 16.0795Z" fill="#1DB954"/>
</svg>
