<svg width="60" height="60" viewBox="0 0 60 60" fill="none" xmlns="http://www.w3.org/2000/svg">
<rect x="0.5" y="0.5" width="59" height="59" rx="4.5" fill="#494949" stroke="#757575"/>
<path fill-rule="evenodd" clip-rule="evenodd" d="M20.0833 18.6663C19.3008 18.6663 18.6666 19.3006 18.6666 20.083V39.9163C18.6666 40.5238 19.0489 41.042 19.5861 41.2433L34.6649 26.1646C35.2181 25.6114 36.1151 25.6114 36.6683 26.1646L41.3333 30.8295V20.083C41.3333 19.3006 40.699 18.6663 39.9166 18.6663H20.0833ZM44.1666 34.2483V20.083C44.1666 17.7358 42.2638 15.833 39.9166 15.833H20.0833C17.736 15.833 15.8333 17.7358 15.8333 20.083V39.9163C15.8333 42.2636 17.736 44.1663 20.0833 44.1663H39.9166C42.2638 44.1663 44.1666 42.2636 44.1666 39.9163V34.2511C44.1666 34.2501 44.1666 34.2492 44.1666 34.2483ZM41.3333 34.8365L35.6666 29.1698L23.5034 41.333H39.9166C40.699 41.333 41.3333 40.6987 41.3333 39.9163V34.8365ZM25.0416 24.333C24.6504 24.333 24.3333 24.6501 24.3333 25.0413C24.3333 25.4325 24.6504 25.7497 25.0416 25.7497C25.4328 25.7497 25.7499 25.4325 25.7499 25.0413C25.7499 24.6501 25.4328 24.333 25.0416 24.333ZM21.4999 25.0413C21.4999 23.0853 23.0856 21.4997 25.0416 21.4997C26.9976 21.4997 28.5833 23.0853 28.5833 25.0413C28.5833 26.9973 26.9976 28.583 25.0416 28.583C23.0856 28.583 21.4999 26.9973 21.4999 25.0413Z" fill="white"/>
<path d="M48.5 6C49.1075 6 49.6 6.49249 49.6 7.1V10.4H52.9C53.5075 10.4 54 10.8925 54 11.5C54 12.1075 53.5075 12.6 52.9 12.6H49.6V15.9C49.6 16.5075 49.1075 17 48.5 17C47.8925 17 47.4 16.5075 47.4 15.9V12.6H44.1C43.4925 12.6 43 12.1075 43 11.5C43 10.8925 43.4925 10.4 44.1 10.4H47.4V7.1C47.4 6.49249 47.8925 6 48.5 6Z" fill="white"/>
</svg>
