<svg width="60" height="60" viewBox="0 0 60 60" fill="none" xmlns="http://www.w3.org/2000/svg">
<rect x="0.5" y="0.5" width="59" height="59" rx="4.5" fill="#494949" stroke="#757575"/>
<path fill-rule="evenodd" clip-rule="evenodd" d="M24.5713 16.4638C24.834 16.0697 25.2763 15.833 25.75 15.833H34.25C34.7237 15.833 35.166 16.0697 35.4287 16.4638L37.8415 20.083H42.75C43.8772 20.083 44.9582 20.5308 45.7552 21.3278C46.5522 22.1248 47 23.2058 47 24.333V39.9163C47 41.0435 46.5522 42.1245 45.7552 42.9215C44.9582 43.7186 43.8772 44.1663 42.75 44.1663H17.25C16.1228 44.1663 15.0418 43.7186 14.2448 42.9215C13.4478 42.1245 13 41.0435 13 39.9163V24.333C13 23.2058 13.4478 22.1248 14.2448 21.3278C15.0418 20.5308 16.1228 20.083 17.25 20.083H22.1585L24.5713 16.4638ZM26.5082 18.6663L24.0954 22.2855C23.8327 22.6796 23.3903 22.9163 22.9167 22.9163H17.25C16.8743 22.9163 16.5139 23.0656 16.2483 23.3313C15.9826 23.5969 15.8333 23.9573 15.8333 24.333V39.9163C15.8333 40.2921 15.9826 40.6524 16.2483 40.9181C16.5139 41.1838 16.8743 41.333 17.25 41.333H42.75C43.1257 41.333 43.4861 41.1838 43.7517 40.9181C44.0174 40.6524 44.1667 40.2921 44.1667 39.9163V24.333C44.1667 23.9573 44.0174 23.5969 43.7517 23.3313C43.4861 23.0656 43.1257 22.9163 42.75 22.9163H37.0833C36.6097 22.9163 36.1673 22.6796 35.9046 22.2855L33.4918 18.6663H26.5082ZM30 27.1663C27.6528 27.1663 25.75 29.0691 25.75 31.4163C25.75 33.7636 27.6528 35.6663 30 35.6663C32.3472 35.6663 34.25 33.7635 34.25 31.4163C34.25 29.0691 32.3472 27.1663 30 27.1663ZM22.9167 31.4163C22.9167 27.5043 26.088 24.333 30 24.333C33.912 24.333 37.0833 27.5043 37.0833 31.4163C37.0833 35.3284 33.912 38.4997 30 38.4997C26.088 38.4997 22.9167 35.3284 22.9167 31.4163Z" fill="white"/>
<path d="M48.5 6C49.1075 6 49.6 6.49249 49.6 7.1V10.4H52.9C53.5075 10.4 54 10.8925 54 11.5C54 12.1075 53.5075 12.6 52.9 12.6H49.6V15.9C49.6 16.5075 49.1075 17 48.5 17C47.8925 17 47.4 16.5075 47.4 15.9V12.6H44.1C43.4925 12.6 43 12.1075 43 11.5C43 10.8925 43.4925 10.4 44.1 10.4H47.4V7.1C47.4 6.49249 47.8925 6 48.5 6Z" fill="white"/>
</svg>
